<svg width="17" height="16" viewBox="0 0 17 16" fill="none" xmlns="http://www.w3.org/2000/svg">
<path d="M7.29883 0.113159C8.93395 0.0626746 10.5271 0.636439 11.7539 1.71863C12.9808 2.80099 13.7496 4.31046 13.9033 5.93933C14.0542 7.53827 13.5989 9.13297 12.6338 10.4139L15.9678 13.7469C16.0505 13.8297 16.1163 13.9279 16.1611 14.036C16.206 14.1442 16.2295 14.2607 16.2295 14.3778C16.2295 14.4949 16.206 14.6114 16.1611 14.7196C16.1163 14.8277 16.0505 14.9259 15.9678 15.0087C15.885 15.0914 15.7868 15.1572 15.6787 15.202C15.5705 15.2469 15.4541 15.2694 15.3369 15.2694C15.2198 15.2694 15.1033 15.2469 14.9951 15.202C14.887 15.1572 14.7888 15.0914 14.7061 15.0087L11.373 11.6747C10.0923 12.6424 8.49593 13.0991 6.89551 12.9491C5.26544 12.7962 3.75495 12.0275 2.67188 10.7997C1.5888 9.57185 1.01472 7.97713 1.06641 6.3407C1.11822 4.7041 1.79249 3.14806 2.95117 1.99109C4.1088 0.835157 5.66366 0.163758 7.29883 0.113159ZM7.50879 1.91882C6.2821 1.92382 5.10666 2.41275 4.23926 3.28015C3.37188 4.14755 2.88292 5.32302 2.87793 6.54968C2.873 7.77628 3.35263 8.95557 4.21289 9.82996C4.64329 10.2674 5.1562 10.6151 5.72168 10.8534C6.28734 11.0918 6.89496 11.2161 7.50879 11.2186C8.12243 11.2211 8.73042 11.1017 9.29785 10.868C9.86541 10.6343 10.3814 10.2903 10.8154 9.85632C11.2495 9.42228 11.5934 8.90633 11.8271 8.33875C12.0608 7.77131 12.1802 7.16333 12.1777 6.54968C12.1752 5.93585 12.0509 5.32824 11.8125 4.76257C11.5742 4.19707 11.2265 3.68419 10.7891 3.25378C9.91465 2.3935 8.73543 1.91387 7.50879 1.91882Z" fill="#0156FF" stroke="#0156FF" stroke-width="0.2"/>
</svg>
